<mxfile host="app.diagrams.net" modified="2020-07-30T23:59:50.589Z" agent="5.0 (Macintosh; Intel Mac OS X 10_15_5) AppleWebKit/537.36 (KHTML, like Gecko) Chrome/84.0.4147.89 Safari/537.36" etag="7vRWAiGkpv9w85_FPONH" version="13.5.5" type="github">
  <diagram id="mQvOYDtmC9NomVamLVzc" name="Page-1">
    <mxGraphModel dx="746" dy="971" grid="1" gridSize="10" guides="1" tooltips="1" connect="1" arrows="1" fold="1" page="1" pageScale="1" pageWidth="827" pageHeight="1169" math="0" shadow="0">
      <root>
        <mxCell id="0" />
        <mxCell id="1" parent="0" />
        <mxCell id="0-tW8h5M35i2ihpSaBx8-23" value="" style="shape=table;html=1;whiteSpace=wrap;startSize=0;container=1;collapsible=0;childLayout=tableLayout;" vertex="1" parent="1">
          <mxGeometry x="50" y="230" width="130" height="278" as="geometry" />
        </mxCell>
        <mxCell id="0-tW8h5M35i2ihpSaBx8-24" value="" style="shape=partialRectangle;html=1;whiteSpace=wrap;collapsible=0;dropTarget=0;pointerEvents=0;fillColor=none;top=0;left=0;bottom=0;right=0;points=[[0,0.5],[1,0.5]];portConstraint=eastwest;" vertex="1" parent="0-tW8h5M35i2ihpSaBx8-23">
          <mxGeometry width="130" height="70" as="geometry" />
        </mxCell>
        <mxCell id="0-tW8h5M35i2ihpSaBx8-25" value="application&lt;br&gt;&lt;br&gt;" style="shape=partialRectangle;html=1;whiteSpace=wrap;connectable=0;overflow=hidden;fillColor=none;top=0;left=0;bottom=0;right=0;" vertex="1" parent="0-tW8h5M35i2ihpSaBx8-24">
          <mxGeometry width="130" height="70" as="geometry" />
        </mxCell>
        <mxCell id="0-tW8h5M35i2ihpSaBx8-26" value="" style="shape=partialRectangle;html=1;whiteSpace=wrap;collapsible=0;dropTarget=0;pointerEvents=0;fillColor=none;top=0;left=0;bottom=0;right=0;points=[[0,0.5],[1,0.5]];portConstraint=eastwest;" vertex="1" parent="0-tW8h5M35i2ihpSaBx8-23">
          <mxGeometry y="70" width="130" height="52" as="geometry" />
        </mxCell>
        <mxCell id="0-tW8h5M35i2ihpSaBx8-27" value="transport" style="shape=partialRectangle;html=1;whiteSpace=wrap;connectable=0;overflow=hidden;fillColor=#f5f5f5;top=0;left=0;bottom=0;right=0;gradientColor=#b3b3b3;strokeColor=#666666;" vertex="1" parent="0-tW8h5M35i2ihpSaBx8-26">
          <mxGeometry width="130" height="52" as="geometry" />
        </mxCell>
        <mxCell id="0-tW8h5M35i2ihpSaBx8-28" value="" style="shape=partialRectangle;html=1;whiteSpace=wrap;collapsible=0;dropTarget=0;pointerEvents=0;fillColor=none;top=0;left=0;bottom=0;right=0;points=[[0,0.5],[1,0.5]];portConstraint=eastwest;" vertex="1" parent="0-tW8h5M35i2ihpSaBx8-23">
          <mxGeometry y="122" width="130" height="52" as="geometry" />
        </mxCell>
        <mxCell id="0-tW8h5M35i2ihpSaBx8-29" value="network" style="shape=partialRectangle;html=1;whiteSpace=wrap;connectable=0;overflow=hidden;fillColor=none;top=0;left=0;bottom=0;right=0;" vertex="1" parent="0-tW8h5M35i2ihpSaBx8-28">
          <mxGeometry width="130" height="52" as="geometry" />
        </mxCell>
        <mxCell id="0-tW8h5M35i2ihpSaBx8-30" value="" style="shape=partialRectangle;html=1;whiteSpace=wrap;collapsible=0;dropTarget=0;pointerEvents=0;fillColor=none;top=0;left=0;bottom=0;right=0;points=[[0,0.5],[1,0.5]];portConstraint=eastwest;" vertex="1" parent="0-tW8h5M35i2ihpSaBx8-23">
          <mxGeometry y="174" width="130" height="52" as="geometry" />
        </mxCell>
        <mxCell id="0-tW8h5M35i2ihpSaBx8-31" value="data link" style="shape=partialRectangle;html=1;whiteSpace=wrap;connectable=0;overflow=hidden;fillColor=none;top=0;left=0;bottom=0;right=0;" vertex="1" parent="0-tW8h5M35i2ihpSaBx8-30">
          <mxGeometry width="130" height="52" as="geometry" />
        </mxCell>
        <mxCell id="0-tW8h5M35i2ihpSaBx8-32" value="" style="shape=partialRectangle;html=1;whiteSpace=wrap;collapsible=0;dropTarget=0;pointerEvents=0;fillColor=none;top=0;left=0;bottom=0;right=0;points=[[0,0.5],[1,0.5]];portConstraint=eastwest;" vertex="1" parent="0-tW8h5M35i2ihpSaBx8-23">
          <mxGeometry y="226" width="130" height="52" as="geometry" />
        </mxCell>
        <mxCell id="0-tW8h5M35i2ihpSaBx8-33" value="physical" style="shape=partialRectangle;html=1;whiteSpace=wrap;connectable=0;overflow=hidden;fillColor=none;top=0;left=0;bottom=0;right=0;" vertex="1" parent="0-tW8h5M35i2ihpSaBx8-32">
          <mxGeometry width="130" height="52" as="geometry" />
        </mxCell>
        <mxCell id="0-tW8h5M35i2ihpSaBx8-34" value="P3" style="ellipse;whiteSpace=wrap;html=1;fillColor=#dae8fc;strokeColor=#6c8ebf;" vertex="1" parent="1">
          <mxGeometry x="95" y="270" width="40" height="20" as="geometry" />
        </mxCell>
        <mxCell id="0-tW8h5M35i2ihpSaBx8-35" value="" style="rounded=0;whiteSpace=wrap;html=1;fillColor=#fff2cc;strokeColor=#d6b656;" vertex="1" parent="1">
          <mxGeometry x="100" y="293" width="30" height="20" as="geometry" />
        </mxCell>
        <mxCell id="0-tW8h5M35i2ihpSaBx8-38" value="P3" style="ellipse;whiteSpace=wrap;html=1;fillColor=#dae8fc;strokeColor=#6c8ebf;" vertex="1" parent="1">
          <mxGeometry x="365" y="150" width="40" height="20" as="geometry" />
        </mxCell>
        <mxCell id="0-tW8h5M35i2ihpSaBx8-39" value="" style="rounded=0;whiteSpace=wrap;html=1;fillColor=#fff2cc;strokeColor=#d6b656;" vertex="1" parent="1">
          <mxGeometry x="360" y="170" width="50" height="30" as="geometry" />
        </mxCell>
        <mxCell id="0-tW8h5M35i2ihpSaBx8-40" value="" style="rounded=0;whiteSpace=wrap;html=1;" vertex="1" parent="1">
          <mxGeometry x="375" y="175" width="20" height="20" as="geometry" />
        </mxCell>
        <mxCell id="0-tW8h5M35i2ihpSaBx8-42" value="" style="rounded=0;whiteSpace=wrap;html=1;fillColor=#fff2cc;strokeColor=#d6b656;" vertex="1" parent="1">
          <mxGeometry x="360" y="170" width="50" height="30" as="geometry" />
        </mxCell>
        <mxCell id="0-tW8h5M35i2ihpSaBx8-45" value="" style="rounded=0;whiteSpace=wrap;html=1;" vertex="1" parent="1">
          <mxGeometry x="375" y="175" width="20" height="20" as="geometry" />
        </mxCell>
        <mxCell id="0-tW8h5M35i2ihpSaBx8-46" value="P3" style="ellipse;whiteSpace=wrap;html=1;fillColor=#dae8fc;strokeColor=#6c8ebf;" vertex="1" parent="1">
          <mxGeometry x="365" y="150" width="40" height="20" as="geometry" />
        </mxCell>
        <mxCell id="0-tW8h5M35i2ihpSaBx8-47" value="P3" style="ellipse;whiteSpace=wrap;html=1;fillColor=#dae8fc;strokeColor=#6c8ebf;" vertex="1" parent="1">
          <mxGeometry x="665" y="263" width="40" height="20" as="geometry" />
        </mxCell>
        <mxCell id="0-tW8h5M35i2ihpSaBx8-48" value="" style="rounded=0;whiteSpace=wrap;html=1;fillColor=#fff2cc;strokeColor=#d6b656;" vertex="1" parent="1">
          <mxGeometry x="660" y="283" width="50" height="30" as="geometry" />
        </mxCell>
        <mxCell id="0-tW8h5M35i2ihpSaBx8-49" value="" style="rounded=0;whiteSpace=wrap;html=1;" vertex="1" parent="1">
          <mxGeometry x="675" y="288" width="20" height="20" as="geometry" />
        </mxCell>
        <mxCell id="0-tW8h5M35i2ihpSaBx8-50" value="" style="rounded=0;whiteSpace=wrap;html=1;fillColor=#fff2cc;strokeColor=#d6b656;" vertex="1" parent="1">
          <mxGeometry x="660" y="283" width="50" height="30" as="geometry" />
        </mxCell>
        <mxCell id="0-tW8h5M35i2ihpSaBx8-52" value="" style="rounded=0;whiteSpace=wrap;html=1;" vertex="1" parent="1">
          <mxGeometry x="675" y="288" width="20" height="20" as="geometry" />
        </mxCell>
        <mxCell id="0-tW8h5M35i2ihpSaBx8-53" value="P3" style="ellipse;whiteSpace=wrap;html=1;fillColor=#dae8fc;strokeColor=#6c8ebf;" vertex="1" parent="1">
          <mxGeometry x="665" y="263" width="40" height="20" as="geometry" />
        </mxCell>
        <mxCell id="0-tW8h5M35i2ihpSaBx8-91" style="edgeStyle=orthogonalEdgeStyle;rounded=0;orthogonalLoop=1;jettySize=auto;html=1;strokeColor=#FF0000;strokeWidth=2;" edge="1" parent="1" source="0-tW8h5M35i2ihpSaBx8-55">
          <mxGeometry relative="1" as="geometry">
            <mxPoint x="110" y="545" as="targetPoint" />
          </mxGeometry>
        </mxCell>
        <mxCell id="0-tW8h5M35i2ihpSaBx8-55" value="" style="whiteSpace=wrap;html=1;fillColor=#e1d5e7;strokeColor=#9673a6;" vertex="1" parent="1">
          <mxGeometry x="130" y="530" width="40" height="30" as="geometry" />
        </mxCell>
        <mxCell id="0-tW8h5M35i2ihpSaBx8-56" value="Source IP, Port: B, 80" style="text;html=1;align=center;verticalAlign=middle;resizable=0;points=[];autosize=1;" vertex="1" parent="1">
          <mxGeometry x="195" y="520" width="130" height="20" as="geometry" />
        </mxCell>
        <mxCell id="0-tW8h5M35i2ihpSaBx8-12" value="" style="shape=table;html=1;whiteSpace=wrap;startSize=0;container=1;collapsible=0;childLayout=tableLayout;" vertex="1" parent="1">
          <mxGeometry x="620" y="223" width="130" height="278" as="geometry" />
        </mxCell>
        <mxCell id="0-tW8h5M35i2ihpSaBx8-13" value="" style="shape=partialRectangle;html=1;whiteSpace=wrap;collapsible=0;dropTarget=0;pointerEvents=0;fillColor=none;top=0;left=0;bottom=0;right=0;points=[[0,0.5],[1,0.5]];portConstraint=eastwest;" vertex="1" parent="0-tW8h5M35i2ihpSaBx8-12">
          <mxGeometry width="130" height="70" as="geometry" />
        </mxCell>
        <mxCell id="0-tW8h5M35i2ihpSaBx8-14" value="application&lt;br&gt;&lt;br&gt;" style="shape=partialRectangle;html=1;whiteSpace=wrap;connectable=0;overflow=hidden;fillColor=none;top=0;left=0;bottom=0;right=0;" vertex="1" parent="0-tW8h5M35i2ihpSaBx8-13">
          <mxGeometry width="130" height="70" as="geometry" />
        </mxCell>
        <mxCell id="0-tW8h5M35i2ihpSaBx8-15" value="" style="shape=partialRectangle;html=1;whiteSpace=wrap;collapsible=0;dropTarget=0;pointerEvents=0;fillColor=none;top=0;left=0;bottom=0;right=0;points=[[0,0.5],[1,0.5]];portConstraint=eastwest;" vertex="1" parent="0-tW8h5M35i2ihpSaBx8-12">
          <mxGeometry y="70" width="130" height="52" as="geometry" />
        </mxCell>
        <mxCell id="0-tW8h5M35i2ihpSaBx8-16" value="transport" style="shape=partialRectangle;html=1;whiteSpace=wrap;connectable=0;overflow=hidden;fillColor=#f5f5f5;top=0;left=0;bottom=0;right=0;gradientColor=#b3b3b3;strokeColor=#666666;" vertex="1" parent="0-tW8h5M35i2ihpSaBx8-15">
          <mxGeometry width="130" height="52" as="geometry" />
        </mxCell>
        <mxCell id="0-tW8h5M35i2ihpSaBx8-17" value="" style="shape=partialRectangle;html=1;whiteSpace=wrap;collapsible=0;dropTarget=0;pointerEvents=0;fillColor=none;top=0;left=0;bottom=0;right=0;points=[[0,0.5],[1,0.5]];portConstraint=eastwest;" vertex="1" parent="0-tW8h5M35i2ihpSaBx8-12">
          <mxGeometry y="122" width="130" height="52" as="geometry" />
        </mxCell>
        <mxCell id="0-tW8h5M35i2ihpSaBx8-18" value="network" style="shape=partialRectangle;html=1;whiteSpace=wrap;connectable=0;overflow=hidden;fillColor=none;top=0;left=0;bottom=0;right=0;" vertex="1" parent="0-tW8h5M35i2ihpSaBx8-17">
          <mxGeometry width="130" height="52" as="geometry" />
        </mxCell>
        <mxCell id="0-tW8h5M35i2ihpSaBx8-19" value="" style="shape=partialRectangle;html=1;whiteSpace=wrap;collapsible=0;dropTarget=0;pointerEvents=0;fillColor=none;top=0;left=0;bottom=0;right=0;points=[[0,0.5],[1,0.5]];portConstraint=eastwest;" vertex="1" parent="0-tW8h5M35i2ihpSaBx8-12">
          <mxGeometry y="174" width="130" height="52" as="geometry" />
        </mxCell>
        <mxCell id="0-tW8h5M35i2ihpSaBx8-20" value="data link" style="shape=partialRectangle;html=1;whiteSpace=wrap;connectable=0;overflow=hidden;fillColor=none;top=0;left=0;bottom=0;right=0;" vertex="1" parent="0-tW8h5M35i2ihpSaBx8-19">
          <mxGeometry width="130" height="52" as="geometry" />
        </mxCell>
        <mxCell id="0-tW8h5M35i2ihpSaBx8-21" value="" style="shape=partialRectangle;html=1;whiteSpace=wrap;collapsible=0;dropTarget=0;pointerEvents=0;fillColor=none;top=0;left=0;bottom=0;right=0;points=[[0,0.5],[1,0.5]];portConstraint=eastwest;" vertex="1" parent="0-tW8h5M35i2ihpSaBx8-12">
          <mxGeometry y="226" width="130" height="52" as="geometry" />
        </mxCell>
        <mxCell id="0-tW8h5M35i2ihpSaBx8-22" value="physical" style="shape=partialRectangle;html=1;whiteSpace=wrap;connectable=0;overflow=hidden;fillColor=none;top=0;left=0;bottom=0;right=0;" vertex="1" parent="0-tW8h5M35i2ihpSaBx8-21">
          <mxGeometry width="130" height="52" as="geometry" />
        </mxCell>
        <mxCell id="0-tW8h5M35i2ihpSaBx8-1" value="" style="shape=table;html=1;whiteSpace=wrap;startSize=0;container=1;collapsible=0;childLayout=tableLayout;" vertex="1" parent="1">
          <mxGeometry x="290" y="110" width="220" height="278" as="geometry" />
        </mxCell>
        <mxCell id="0-tW8h5M35i2ihpSaBx8-2" value="" style="shape=partialRectangle;html=1;whiteSpace=wrap;collapsible=0;dropTarget=0;pointerEvents=0;fillColor=none;top=0;left=0;bottom=0;right=0;points=[[0,0.5],[1,0.5]];portConstraint=eastwest;" vertex="1" parent="0-tW8h5M35i2ihpSaBx8-1">
          <mxGeometry width="220" height="70" as="geometry" />
        </mxCell>
        <mxCell id="0-tW8h5M35i2ihpSaBx8-3" value="application&lt;br&gt;&lt;br&gt;" style="shape=partialRectangle;html=1;whiteSpace=wrap;connectable=0;overflow=hidden;fillColor=none;top=0;left=0;bottom=0;right=0;" vertex="1" parent="0-tW8h5M35i2ihpSaBx8-2">
          <mxGeometry width="220" height="70" as="geometry" />
        </mxCell>
        <mxCell id="0-tW8h5M35i2ihpSaBx8-4" value="" style="shape=partialRectangle;html=1;whiteSpace=wrap;collapsible=0;dropTarget=0;pointerEvents=0;fillColor=none;top=0;left=0;bottom=0;right=0;points=[[0,0.5],[1,0.5]];portConstraint=eastwest;" vertex="1" parent="0-tW8h5M35i2ihpSaBx8-1">
          <mxGeometry y="70" width="220" height="52" as="geometry" />
        </mxCell>
        <mxCell id="0-tW8h5M35i2ihpSaBx8-5" value="transport" style="shape=partialRectangle;html=1;whiteSpace=wrap;connectable=0;overflow=hidden;fillColor=#f5f5f5;top=0;left=0;bottom=0;right=0;gradientColor=#b3b3b3;strokeColor=#666666;" vertex="1" parent="0-tW8h5M35i2ihpSaBx8-4">
          <mxGeometry width="220" height="52" as="geometry" />
        </mxCell>
        <mxCell id="0-tW8h5M35i2ihpSaBx8-6" value="" style="shape=partialRectangle;html=1;whiteSpace=wrap;collapsible=0;dropTarget=0;pointerEvents=0;fillColor=none;top=0;left=0;bottom=0;right=0;points=[[0,0.5],[1,0.5]];portConstraint=eastwest;" vertex="1" parent="0-tW8h5M35i2ihpSaBx8-1">
          <mxGeometry y="122" width="220" height="52" as="geometry" />
        </mxCell>
        <mxCell id="0-tW8h5M35i2ihpSaBx8-7" value="network" style="shape=partialRectangle;html=1;whiteSpace=wrap;connectable=0;overflow=hidden;fillColor=none;top=0;left=0;bottom=0;right=0;" vertex="1" parent="0-tW8h5M35i2ihpSaBx8-6">
          <mxGeometry width="220" height="52" as="geometry" />
        </mxCell>
        <mxCell id="0-tW8h5M35i2ihpSaBx8-8" value="" style="shape=partialRectangle;html=1;whiteSpace=wrap;collapsible=0;dropTarget=0;pointerEvents=0;fillColor=none;top=0;left=0;bottom=0;right=0;points=[[0,0.5],[1,0.5]];portConstraint=eastwest;" vertex="1" parent="0-tW8h5M35i2ihpSaBx8-1">
          <mxGeometry y="174" width="220" height="52" as="geometry" />
        </mxCell>
        <mxCell id="0-tW8h5M35i2ihpSaBx8-9" value="data link" style="shape=partialRectangle;html=1;whiteSpace=wrap;connectable=0;overflow=hidden;fillColor=none;top=0;left=0;bottom=0;right=0;" vertex="1" parent="0-tW8h5M35i2ihpSaBx8-8">
          <mxGeometry width="220" height="52" as="geometry" />
        </mxCell>
        <mxCell id="0-tW8h5M35i2ihpSaBx8-10" value="" style="shape=partialRectangle;html=1;whiteSpace=wrap;collapsible=0;dropTarget=0;pointerEvents=0;fillColor=none;top=0;left=0;bottom=0;right=0;points=[[0,0.5],[1,0.5]];portConstraint=eastwest;" vertex="1" parent="0-tW8h5M35i2ihpSaBx8-1">
          <mxGeometry y="226" width="220" height="52" as="geometry" />
        </mxCell>
        <mxCell id="0-tW8h5M35i2ihpSaBx8-11" value="physical" style="shape=partialRectangle;html=1;whiteSpace=wrap;connectable=0;overflow=hidden;fillColor=none;top=0;left=0;bottom=0;right=0;" vertex="1" parent="0-tW8h5M35i2ihpSaBx8-10">
          <mxGeometry width="220" height="52" as="geometry" />
        </mxCell>
        <mxCell id="0-tW8h5M35i2ihpSaBx8-68" value="" style="rounded=0;whiteSpace=wrap;html=1;fillColor=#fff2cc;strokeColor=#d6b656;" vertex="1" parent="1">
          <mxGeometry x="385" y="170" width="30" height="20" as="geometry" />
        </mxCell>
        <mxCell id="0-tW8h5M35i2ihpSaBx8-71" value="" style="rounded=0;whiteSpace=wrap;html=1;fillColor=#fff2cc;strokeColor=#d6b656;" vertex="1" parent="1">
          <mxGeometry x="330" y="170" width="30" height="20" as="geometry" />
        </mxCell>
        <mxCell id="0-tW8h5M35i2ihpSaBx8-72" value="" style="rounded=0;whiteSpace=wrap;html=1;fillColor=#fff2cc;strokeColor=#d6b656;" vertex="1" parent="1">
          <mxGeometry x="440" y="170" width="30" height="20" as="geometry" />
        </mxCell>
        <mxCell id="0-tW8h5M35i2ihpSaBx8-73" value="P4" style="ellipse;whiteSpace=wrap;html=1;fillColor=#dae8fc;strokeColor=#6c8ebf;" vertex="1" parent="1">
          <mxGeometry x="325" y="150" width="40" height="20" as="geometry" />
        </mxCell>
        <mxCell id="0-tW8h5M35i2ihpSaBx8-74" value="P5" style="ellipse;whiteSpace=wrap;html=1;fillColor=#dae8fc;strokeColor=#6c8ebf;" vertex="1" parent="1">
          <mxGeometry x="380" y="150" width="40" height="20" as="geometry" />
        </mxCell>
        <mxCell id="0-tW8h5M35i2ihpSaBx8-75" value="P6" style="ellipse;whiteSpace=wrap;html=1;fillColor=#dae8fc;strokeColor=#6c8ebf;" vertex="1" parent="1">
          <mxGeometry x="435" y="150" width="40" height="20" as="geometry" />
        </mxCell>
        <mxCell id="0-tW8h5M35i2ihpSaBx8-78" value="" style="rounded=0;whiteSpace=wrap;html=1;fillColor=#fff2cc;strokeColor=#d6b656;" vertex="1" parent="1">
          <mxGeometry x="640" y="283" width="30" height="20" as="geometry" />
        </mxCell>
        <mxCell id="0-tW8h5M35i2ihpSaBx8-79" value="P2" style="ellipse;whiteSpace=wrap;html=1;fillColor=#dae8fc;strokeColor=#6c8ebf;" vertex="1" parent="1">
          <mxGeometry x="635" y="263" width="40" height="20" as="geometry" />
        </mxCell>
        <mxCell id="0-tW8h5M35i2ihpSaBx8-80" value="" style="rounded=0;whiteSpace=wrap;html=1;fillColor=#fff2cc;strokeColor=#d6b656;" vertex="1" parent="1">
          <mxGeometry x="700" y="283" width="30" height="20" as="geometry" />
        </mxCell>
        <mxCell id="0-tW8h5M35i2ihpSaBx8-81" value="P3" style="ellipse;whiteSpace=wrap;html=1;fillColor=#dae8fc;strokeColor=#6c8ebf;" vertex="1" parent="1">
          <mxGeometry x="695" y="263" width="40" height="20" as="geometry" />
        </mxCell>
        <mxCell id="0-tW8h5M35i2ihpSaBx8-82" value="" style="endArrow=classic;startArrow=classic;html=1;exitX=0.5;exitY=1;exitDx=0;exitDy=0;entryX=0.5;entryY=1;entryDx=0;entryDy=0;fillColor=#f8cecc;strokeWidth=2;strokeColor=#FF0000;" edge="1" parent="1" source="0-tW8h5M35i2ihpSaBx8-35" target="0-tW8h5M35i2ihpSaBx8-71">
          <mxGeometry width="50" height="50" relative="1" as="geometry">
            <mxPoint x="290" y="480" as="sourcePoint" />
            <mxPoint x="115" y="560" as="targetPoint" />
            <Array as="points">
              <mxPoint x="115" y="580" />
              <mxPoint x="345" y="580" />
            </Array>
          </mxGeometry>
        </mxCell>
        <mxCell id="0-tW8h5M35i2ihpSaBx8-84" value="" style="endArrow=classic;startArrow=classic;html=1;strokeWidth=2;entryX=0.5;entryY=1;entryDx=0;entryDy=0;strokeColor=#FF0000;" edge="1" parent="1" source="0-tW8h5M35i2ihpSaBx8-80" target="0-tW8h5M35i2ihpSaBx8-68">
          <mxGeometry width="50" height="50" relative="1" as="geometry">
            <mxPoint x="430" y="500" as="sourcePoint" />
            <mxPoint x="480" y="450" as="targetPoint" />
            <Array as="points">
              <mxPoint x="713" y="580" />
              <mxPoint x="400" y="580" />
            </Array>
          </mxGeometry>
        </mxCell>
        <mxCell id="0-tW8h5M35i2ihpSaBx8-85" value="" style="endArrow=classic;startArrow=classic;html=1;strokeColor=#FF0000;strokeWidth=2;entryX=0.5;entryY=1;entryDx=0;entryDy=0;exitX=0.5;exitY=1;exitDx=0;exitDy=0;" edge="1" parent="1" source="0-tW8h5M35i2ihpSaBx8-78" target="0-tW8h5M35i2ihpSaBx8-72">
          <mxGeometry width="50" height="50" relative="1" as="geometry">
            <mxPoint x="480" y="490" as="sourcePoint" />
            <mxPoint x="530" y="440" as="targetPoint" />
            <Array as="points">
              <mxPoint x="655" y="560" />
              <mxPoint x="455" y="560" />
            </Array>
          </mxGeometry>
        </mxCell>
        <mxCell id="0-tW8h5M35i2ihpSaBx8-86" value="dest IP, Port: A, 9157" style="text;html=1;align=center;verticalAlign=middle;resizable=0;points=[];autosize=1;" vertex="1" parent="1">
          <mxGeometry x="195" y="540" width="130" height="20" as="geometry" />
        </mxCell>
        <mxCell id="0-tW8h5M35i2ihpSaBx8-92" style="edgeStyle=orthogonalEdgeStyle;rounded=0;orthogonalLoop=1;jettySize=auto;html=1;strokeColor=#FF0000;strokeWidth=2;" edge="1" parent="1" source="0-tW8h5M35i2ihpSaBx8-88">
          <mxGeometry relative="1" as="geometry">
            <mxPoint x="210" y="620" as="targetPoint" />
          </mxGeometry>
        </mxCell>
        <mxCell id="0-tW8h5M35i2ihpSaBx8-88" value="" style="whiteSpace=wrap;html=1;fillColor=#e1d5e7;strokeColor=#9673a6;" vertex="1" parent="1">
          <mxGeometry x="137.5" y="605" width="45" height="30" as="geometry" />
        </mxCell>
        <mxCell id="0-tW8h5M35i2ihpSaBx8-89" value="Source IP, Port: A, 9157" style="text;html=1;align=center;verticalAlign=middle;resizable=0;points=[];autosize=1;" vertex="1" parent="1">
          <mxGeometry x="225" y="600" width="140" height="20" as="geometry" />
        </mxCell>
        <mxCell id="0-tW8h5M35i2ihpSaBx8-90" value="dest IP, Port: B, 80" style="text;html=1;align=center;verticalAlign=middle;resizable=0;points=[];autosize=1;" vertex="1" parent="1">
          <mxGeometry x="240" y="620" width="110" height="20" as="geometry" />
        </mxCell>
        <mxCell id="0-tW8h5M35i2ihpSaBx8-93" value="&lt;span style=&quot;font-size: 16px&quot;&gt;Server:&lt;/span&gt;&lt;br style=&quot;font-size: 16px&quot;&gt;&lt;span style=&quot;font-size: 16px&quot;&gt;IP address B&lt;/span&gt;" style="text;html=1;align=center;verticalAlign=middle;resizable=0;points=[];autosize=1;" vertex="1" parent="1">
          <mxGeometry x="325" y="60" width="110" height="40" as="geometry" />
        </mxCell>
        <mxCell id="0-tW8h5M35i2ihpSaBx8-94" value="&lt;span style=&quot;font-size: 16px&quot;&gt;host:&lt;/span&gt;&lt;br style=&quot;font-size: 16px&quot;&gt;&lt;span style=&quot;font-size: 16px&quot;&gt;IP address A&lt;/span&gt;" style="text;html=1;align=center;verticalAlign=middle;resizable=0;points=[];autosize=1;" vertex="1" parent="1">
          <mxGeometry x="60" y="170" width="110" height="40" as="geometry" />
        </mxCell>
        <mxCell id="0-tW8h5M35i2ihpSaBx8-95" value="&lt;span style=&quot;font-size: 16px&quot;&gt;host:&lt;/span&gt;&lt;br style=&quot;font-size: 16px&quot;&gt;&lt;span style=&quot;font-size: 16px&quot;&gt;IP address C&lt;/span&gt;" style="text;html=1;align=center;verticalAlign=middle;resizable=0;points=[];autosize=1;" vertex="1" parent="1">
          <mxGeometry x="630" y="155" width="110" height="40" as="geometry" />
        </mxCell>
        <mxCell id="0-tW8h5M35i2ihpSaBx8-100" style="edgeStyle=orthogonalEdgeStyle;rounded=0;orthogonalLoop=1;jettySize=auto;html=1;strokeColor=#FF0000;strokeWidth=2;" edge="1" parent="1" source="0-tW8h5M35i2ihpSaBx8-97">
          <mxGeometry relative="1" as="geometry">
            <mxPoint x="470" y="530" as="targetPoint" />
          </mxGeometry>
        </mxCell>
        <mxCell id="0-tW8h5M35i2ihpSaBx8-97" value="" style="whiteSpace=wrap;html=1;fillColor=#e1d5e7;strokeColor=#9673a6;" vertex="1" parent="1">
          <mxGeometry x="500" y="515" width="35" height="30" as="geometry" />
        </mxCell>
        <mxCell id="0-tW8h5M35i2ihpSaBx8-98" value="Source IP, Port: C, 5775" style="text;html=1;align=center;verticalAlign=middle;resizable=0;points=[];autosize=1;" vertex="1" parent="1">
          <mxGeometry x="540" y="510" width="140" height="20" as="geometry" />
        </mxCell>
        <mxCell id="0-tW8h5M35i2ihpSaBx8-99" value="dest IP, Port: B, 80" style="text;html=1;align=center;verticalAlign=middle;resizable=0;points=[];autosize=1;" vertex="1" parent="1">
          <mxGeometry x="555" y="530" width="110" height="20" as="geometry" />
        </mxCell>
        <mxCell id="0-tW8h5M35i2ihpSaBx8-108" style="edgeStyle=orthogonalEdgeStyle;rounded=0;orthogonalLoop=1;jettySize=auto;html=1;strokeColor=#FF0000;strokeWidth=2;" edge="1" parent="1" source="0-tW8h5M35i2ihpSaBx8-102">
          <mxGeometry relative="1" as="geometry">
            <mxPoint x="560" y="620" as="targetPoint" />
          </mxGeometry>
        </mxCell>
        <mxCell id="0-tW8h5M35i2ihpSaBx8-102" value="" style="whiteSpace=wrap;html=1;fillColor=#e1d5e7;strokeColor=#9673a6;" vertex="1" parent="1">
          <mxGeometry x="585" y="605" width="45" height="30" as="geometry" />
        </mxCell>
        <mxCell id="0-tW8h5M35i2ihpSaBx8-103" value="Source IP, Port: C, 9157" style="text;html=1;align=center;verticalAlign=middle;resizable=0;points=[];autosize=1;" vertex="1" parent="1">
          <mxGeometry x="631.25" y="600" width="140" height="20" as="geometry" />
        </mxCell>
        <mxCell id="0-tW8h5M35i2ihpSaBx8-104" value="dest IP, Port: B, 80" style="text;html=1;align=center;verticalAlign=middle;resizable=0;points=[];autosize=1;" vertex="1" parent="1">
          <mxGeometry x="646.25" y="620" width="110" height="20" as="geometry" />
        </mxCell>
      </root>
    </mxGraphModel>
  </diagram>
</mxfile>
